<?xml version="1.0" encoding="UTF-8" standalone="no"?>
<svg
   xmlns:dc="http://purl.org/dc/elements/1.1/"
   xmlns:cc="http://creativecommons.org/ns#"
   xmlns:rdf="http://www.w3.org/1999/02/22-rdf-syntax-ns#"
   xmlns:svg="http://www.w3.org/2000/svg"
   xmlns="http://www.w3.org/2000/svg"
   xmlns:sodipodi="http://sodipodi.sourceforge.net/DTD/sodipodi-0.dtd"
   xmlns:inkscape="http://www.inkscape.org/namespaces/inkscape"
   height="300px"
   width="300px"
   fill="#1A1A1A"
   version="1.1"
   x="0px"
   y="0px"
   viewBox="0 0 100 100"
   style="enable-background:new 0 0 100 100;"
   xml:space="preserve"
   id="svg3773"
   sodipodi:docname="level-1.svg"
   inkscape:version="0.92.5 (2060ec1f9f, 2020-04-08)"><metadata
     id="metadata3779"><rdf:RDF><cc:Work
         rdf:about=""><dc:format>image/svg+xml</dc:format><dc:type
           rdf:resource="http://purl.org/dc/dcmitype/StillImage" /><dc:title></dc:title></cc:Work></rdf:RDF></metadata><defs
     id="defs3777" /><sodipodi:namedview
     pagecolor="#ffffff"
     bordercolor="#666666"
     borderopacity="1"
     objecttolerance="10"
     gridtolerance="10"
     guidetolerance="10"
     inkscape:pageopacity="0"
     inkscape:pageshadow="2"
     inkscape:window-width="1920"
     inkscape:window-height="1028"
     id="namedview3775"
     showgrid="false"
     inkscape:zoom="1.9374726"
     inkscape:cx="332.70708"
     inkscape:cy="82.357573"
     inkscape:window-x="0"
     inkscape:window-y="24"
     inkscape:window-maximized="1"
     inkscape:current-layer="svg3773" /><path
     d="m 69,81.1 h -1.2 c -3.5,0 -6.3,-2.8 -6.3,-6.3 V 25.2 c 0,-3.5 2.8,-6.3 6.3,-6.3 H 69 c 3.5,0 6.3,2.8 6.3,6.3 v 49.6 c -0.1,3.5 -2.9,6.3 -6.3,6.3 z M 67.7,23.5 c -0.9,0 -1.7,0.8 -1.7,1.7 v 49.6 c 0,0.9 0.8,1.7 1.7,1.7 H 69 c 0.9,0 1.7,-0.8 1.7,-1.7 V 25.2 c 0,-0.9 -0.8,-1.7 -1.7,-1.7 z M 50.6,81.1 h -1.2 c -3.5,0 -6.3,-2.8 -6.3,-6.3 V 41.9 c 0,-3.5 2.8,-6.3 6.3,-6.3 h 1.2 c 3.5,0 6.3,2.8 6.3,6.3 v 32.9 c 0,3.5 -2.8,6.3 -6.3,6.3 z M 49.4,40.2 c -0.9,0 -1.7,0.8 -1.7,1.7 v 32.9 c 0,0.9 0.8,1.7 1.7,1.7 h 1.2 c 0.9,0 1.7,-0.8 1.7,-1.7 V 41.9 c 0,-0.9 -0.8,-1.7 -1.7,-1.7 H 49.4 Z M 32.3,81.1 H 31 c -3.5,0 -6.3,-2.8 -6.3,-6.3 V 59.7 c 0,-3.5 2.8,-6.3 6.3,-6.3 h 1.2 c 3.5,0 6.3,2.8 6.3,6.3 v 15.1 c 0,3.5 -2.8,6.3 -6.2,6.3 z"
     id="path3771"
     inkscape:connector-curvature="0"
     sodipodi:nodetypes="ssssssscssssssssssssssssssscsssssssccsssssssss" /></svg>